<svg xmlns="http://www.w3.org/2000/svg" aria-hidden="true" style="position:absolute;width:0;height:0;overflow:hidden">
  <defs>
    <symbol id="close_icon" viewBox="0 0 32 32">
      <path stroke-linecap="round" stroke-linejoin="round" stroke-width="2.667" d="M24 8 8 24M8 8l16 16"/>
    </symbol>
    <symbol id="add_icon" viewBox="0 0 32 32">
      <path stroke-linecap="round" stroke-linejoin="round" stroke-width="2" d="M16 7v18M7 16h18"/>
    </symbol>
    <symbol id="calendar_icon" viewBox="0 0 28 32">
      <path d="M9.5 4h9V1.5c0-.828.669-1.5 1.5-1.5s1.5.672 1.5 1.5V4H24c2.206 0 4 1.791 4 4v20c0 2.206-1.794 4-4 4H4c-2.209 0-4-1.794-4-4V8a4 4 0 0 1 4-4h2.5V1.5C6.5.672 7.169 0 8 0s1.5.672 1.5 1.5V4zM3 28c0 .55.447 1 1 1h20c.55 0 1-.45 1-1V12H3v16z"/>
    </symbol>
    <symbol id="left_arrow_icon" viewBox="0 0 32 32">
      <path d="M22 7.213 20.706 6 10 16l10.706 10L22 24.794 12.594 16z"/>
    </symbol>
    <symbol id="right_arrow_icon" viewBox="0 0 32 32">
      <path d="M10 7.213 11.294 6 22 16 11.294 26 10 24.794 19.406 16z"/>
    </symbol>
  </defs>
</svg>